<svg width="24" height="24" viewBox="0 0 24 24" fill="none" xmlns="http://www.w3.org/2000/svg">
<g id="Icon / academy">
<path id="vector" fill-rule="evenodd" clip-rule="evenodd" d="M19.2156 6.90219V15H21V6.23462L11.9804 3L3 6.23462L11.9804 9.48218L19.2156 6.90219ZM18.1657 12.2406V16H18.37C17.6371 18.8696 14.9209 21 11.6824 21C7.88134 21 4.8 18.0654 4.8 14.4454C4.8 12.2002 5.98531 10.2186 7.79247 9.03735L11.9779 10.5509L15.7955 9.18957C16.872 9.95497 17.7055 11.0133 18.1657 12.2406ZM14.8035 11.9244H8.56111C7.07555 11.9244 5.8314 13.0818 5.85925 14.4954C5.88711 15.8649 7.06317 16.9664 8.5085 16.9664H14.8562C16.3015 16.9664 17.4775 15.8649 17.5054 14.4954C17.5332 13.0818 16.2891 11.9244 14.8035 11.9244ZM10.548 16.126C9.52982 16.126 8.64575 15.4172 8.66742 14.4454C8.68599 13.5059 9.51744 12.7647 10.5078 12.7647H12.863C13.8565 12.7647 14.7104 13.5059 14.729 14.4454C14.7475 15.4143 13.841 16.126 12.8228 16.126H10.548Z" fill="white"/>
</g>
</svg>
