<svg id="Camada_1" data-name="Camada 1" xmlns="http://www.w3.org/2000/svg" viewBox="0 0 13.69 12"><defs><style>.cls-1{fill:#ec4b26;}</style></defs><title>ico_warn</title><path class="cls-1" d="M18.59,13.52H6.24a.68.68,0,0,1-.58-.33.67.67,0,0,1,0-.67L11.84,1.85a.67.67,0,0,1,1.15,0l6.18,10.67a.67.67,0,0,1,0,.67.68.68,0,0,1-.58.33Zm-6.18-10-5,8.67H17.44Zm.67,6H11.74V6.19h1.34Z" transform="translate(-5.57 -1.52)"/><path class="cls-1" d="M11.75,10.19h1.33v1.33H11.75Z" transform="translate(-5.57 -1.52)"/></svg>