<svg id="Camada_1" data-name="Camada 1" xmlns="http://www.w3.org/2000/svg" viewBox="0 0 13 12.87"><defs><style>.cls-1,.cls-2{fill:#1b41aa;}.cls-2{fill-rule:evenodd;}</style></defs><title>ico_placeholder</title><path class="cls-1" d="M18.39,3.1a.44.44,0,0,1,.13.32.4.4,0,0,1-.13.31l-.92.93L15.69,2.88,16.62,2a.43.43,0,0,1,.62,0L18.39,3.1ZM16.84,5.28,15.06,3.51,9,9.56a.45.45,0,0,0-.11.17L8.2,11.87a.17.17,0,0,0,0,.12.22.22,0,0,0,.17.17.17.17,0,0,0,.12,0l2.14-.71a.45.45,0,0,0,.17-.11Z" transform="translate(-5.52 -1.83)"/><path class="cls-2" d="M5.52,13.36A1.33,1.33,0,0,0,6.85,14.7h9.77A1.33,1.33,0,0,0,18,13.36V8a.44.44,0,0,0-.45-.44.42.42,0,0,0-.31.13.44.44,0,0,0-.13.31v5.32a.48.48,0,0,1-.13.32.46.46,0,0,1-.31.13H6.85a.46.46,0,0,1-.31-.13.48.48,0,0,1-.13-.32V3.6a.44.44,0,0,1,.13-.31.42.42,0,0,1,.31-.13h5.77a.44.44,0,0,0,.45-.45.46.46,0,0,0-.13-.31.48.48,0,0,0-.32-.13H6.85A1.33,1.33,0,0,0,5.52,3.6Z" transform="translate(-5.52 -1.83)"/></svg>