<svg id="Camada_1" data-name="Camada 1" xmlns="http://www.w3.org/2000/svg" viewBox="0 0 16 16"><defs><style>.cls-1{fill:#fff;fill-rule:evenodd;}</style></defs><title>ico_template-white</title><path class="cls-1" d="M43,42.11h6a2,2,0,0,1,2,2v1.34h5.34a1.33,1.33,0,0,1,1.33,1.33v10a1.33,1.33,0,0,1-1.33,1.33h-6A1.33,1.33,0,0,1,49,56.78v-2H43a1.34,1.34,0,0,1-1.33-1.33v-10A1.34,1.34,0,0,1,43,42.11Zm8,6V46.78h5.34v10h-6V53.45H43v-10h6.67v4.66Zm-4.13,3.47h5.05l-.86.87.94.94,2.48-2.47L52,48.45l-.94.94.86.86H46.87Zm-2.53-6.8h4v1.33h-4ZM47,47.45H44.34v1.33H47Z" transform="translate(-41.67 -42.11)"/></svg>