<svg id="Camada_1" data-name="Camada 1" xmlns="http://www.w3.org/2000/svg" viewBox="0 0 13 7"><defs><style>.cls-1{fill:#8dffe1;fill-rule:evenodd;}</style></defs><title>ico_arrow-down</title><path class="cls-1" d="M-.06-.16A.54.54,0,0,1,.1-.26a.48.48,0,0,1,.2,0,.43.43,0,0,1,.19,0,.54.54,0,0,1,.16.1L6.3,5.49,11.94-.16a.54.54,0,0,1,.16-.1.48.48,0,0,1,.2,0,.43.43,0,0,1,.19,0,.54.54,0,0,1,.16.1.62.62,0,0,1,.11.17.58.58,0,0,1,0,.19.65.65,0,0,1,0,.19.46.46,0,0,1-.11.16l-6,6a.42.42,0,0,1-.16.11.43.43,0,0,1-.19,0,.48.48,0,0,1-.2,0,.42.42,0,0,1-.16-.11l-6-6A.64.64,0,0,1-.17.39.63.63,0,0,1-.2.2.58.58,0,0,1-.17,0,1,1,0,0,1-.06-.16Z" transform="translate(0.2 0.3)"/></svg>