<svg id="Camada_1" data-name="Camada 1" xmlns="http://www.w3.org/2000/svg" viewBox="0 0 15 11"><defs><style>.cls-1{fill:#fff;fill-rule:evenodd;}</style></defs><title>ico_sento-white</title><path class="cls-1" d="M53.32,53.47a.39.39,0,0,1-.11-.17.41.41,0,0,1,0-.19.43.43,0,0,1,0-.19.42.42,0,0,1,.11-.16L56,50.11l-2.64-2.64a.49.49,0,0,1-.15-.36.47.47,0,0,1,.15-.35.48.48,0,0,1,.7,0l3,3a.42.42,0,0,1,.11.16.43.43,0,0,1,0,.19.41.41,0,0,1,0,.19.39.39,0,0,1-.11.17l-3,3a.64.64,0,0,1-.16.11.62.62,0,0,1-.38,0A.64.64,0,0,1,53.32,53.47Z" transform="translate(-42.17 -44.61)"/><path class="cls-1" d="M46.17,50.11a.47.47,0,0,1,.15-.35.51.51,0,0,1,.35-.15h9a.51.51,0,0,1,.35.15.47.47,0,0,1,.15.35.49.49,0,0,1-.15.36.5.5,0,0,1-.35.14h-9a.5.5,0,0,1-.35-.14A.49.49,0,0,1,46.17,50.11Z" transform="translate(-42.17 -44.61)"/><path class="cls-1" d="M43.67,55.61a1.46,1.46,0,0,1-1.06-.44,1.5,1.5,0,0,1-.44-1.06v-8a1.52,1.52,0,0,1,.44-1.06,1.5,1.5,0,0,1,1.06-.44h7a1.5,1.5,0,0,1,1.06.44,1.52,1.52,0,0,1,.44,1.06v1.5A.49.49,0,0,1,52,48a.51.51,0,0,1-.7,0,.49.49,0,0,1-.15-.36v-1.5a.47.47,0,0,0-.15-.35.51.51,0,0,0-.35-.15h-7a.51.51,0,0,0-.35.15.47.47,0,0,0-.15.35v8a.49.49,0,0,0,.15.36.5.5,0,0,0,.35.14h7a.5.5,0,0,0,.35-.14.49.49,0,0,0,.15-.36v-1.5a.47.47,0,0,1,.15-.35.48.48,0,0,1,.7,0,.47.47,0,0,1,.15.35v1.5a1.5,1.5,0,0,1-.44,1.06,1.46,1.46,0,0,1-1.06.44Z" transform="translate(-42.17 -44.61)"/></svg>