<svg id="Camada_1" data-name="Camada 1" xmlns="http://www.w3.org/2000/svg" viewBox="0 0 16 16"><defs><style>.cls-1{fill:#1b41aa;fill-rule:evenodd;}</style></defs><title>ico_gohere</title><path class="cls-1" d="M5.36.26h6a2,2,0,0,1,2,2V3.59h5.33A1.34,1.34,0,0,1,20,4.93v10a1.34,1.34,0,0,1-1.33,1.33h-6a1.33,1.33,0,0,1-1.33-1.33v-2h-6A1.34,1.34,0,0,1,4,11.59v-10A1.34,1.34,0,0,1,5.36.26Zm8,6V4.93h5.33v10h-6V11.59H5.36v-10H12V6.26ZM9.22,9.73h5l-.86.86.95.95,2.47-2.47L14.36,6.59l-.95,1,.86.86h-5ZM6.69,2.93h4V4.26h-4ZM9.36,5.59H6.69V6.93H9.36Z" transform="translate(-4.02 -0.26)"/></svg>