<svg id="Camada_1" data-name="Camada 1" xmlns="http://www.w3.org/2000/svg" viewBox="0 0 13 12.87"><defs><style>.cls-1,.cls-2{fill:#fff;}.cls-2{fill-rule:evenodd;}</style></defs><title>ico_edit-white</title><path class="cls-1" d="M56,45a.43.43,0,0,1,0,.62l-.92.93-1.78-1.77.93-.93a.43.43,0,0,1,.62,0L56,45Zm-1.55,2.18-1.78-1.78-6,6a.45.45,0,0,0-.11.17l-.71,2.15a.16.16,0,0,0,0,.12A.24.24,0,0,0,46,54a.29.29,0,0,0,.13,0l2.14-.72a.59.59,0,0,0,.17-.1Z" transform="translate(-43.17 -43.68)"/><path class="cls-2" d="M43.17,55.22a1.33,1.33,0,0,0,1.33,1.33h9.76a1.33,1.33,0,0,0,1.34-1.33V49.89a.44.44,0,0,0-.45-.44.4.4,0,0,0-.31.13.44.44,0,0,0-.13.31v5.33a.46.46,0,0,1-.13.31.46.46,0,0,1-.32.13H44.5a.44.44,0,0,1-.31-.13.46.46,0,0,1-.13-.31V45.45a.46.46,0,0,1,.13-.31A.44.44,0,0,1,44.5,45h5.77a.44.44,0,0,0,.31-.13.42.42,0,0,0,.13-.31.44.44,0,0,0-.44-.45H44.5a1.33,1.33,0,0,0-1.33,1.33Z" transform="translate(-43.17 -43.68)"/></svg>