<svg id="Camada_1" data-name="Camada 1" xmlns="http://www.w3.org/2000/svg" xmlns:xlink="http://www.w3.org/1999/xlink" viewBox="0 0 36 36"><defs><style>.cls-1{fill:none;stroke-width:1.6px;stroke:url(#Gradiente_sem_nome_2);}.cls-2{fill:#fff;fill-rule:evenodd;}</style><linearGradient id="Gradiente_sem_nome_2" x1="319.11" y1="-372.13" x2="276.97" y2="-398.21" gradientTransform="matrix(1, 0, 0, -1, -280.04, -367.17)" gradientUnits="userSpaceOnUse"><stop offset="0" stop-color="#b28df2"/><stop offset="0.5" stop-color="#8c9fd4"/><stop offset="1" stop-color="#8cd4c1"/></linearGradient></defs><title>menu_back</title><circle class="cls-1" cx="18" cy="18" r="17.2"/><path class="cls-2" d="M21.09,8.78a.6.6,0,0,1,.14.21.61.61,0,0,1,0,.24.67.67,0,0,1,0,.24.66.66,0,0,1-.14.2L14,16.73l7.06,7.05a.63.63,0,0,1,.18.45.61.61,0,0,1-.62.62.59.59,0,0,1-.44-.18l-7.5-7.5a.66.66,0,0,1-.14-.2.69.69,0,0,1-.05-.24.6.6,0,0,1,.05-.24.6.6,0,0,1,.14-.21l7.5-7.5a.58.58,0,0,1,.2-.13.64.64,0,0,1,.24-.05.69.69,0,0,1,.24.05.86.86,0,0,1,.2.13Z" transform="translate(0.1 1.27)"/></svg>