<svg id="Camada_1" data-name="Camada 1" xmlns="http://www.w3.org/2000/svg" xmlns:xlink="http://www.w3.org/1999/xlink" viewBox="0 0 22 18.33"><defs><style>.cls-1,.cls-2{fill:none;stroke-linecap:round;stroke-linejoin:round;stroke-width:1.6px;}.cls-1{stroke:url(#Gradiente_sem_nome_4);}.cls-2{stroke:url(#Gradiente_sem_nome_4-2);}</style><linearGradient id="Gradiente_sem_nome_4" x1="303.77" y1="-385.92" x2="280.81" y2="-402.97" gradientTransform="matrix(1, 0, 0, -1, -280.14, -386.44)" gradientUnits="userSpaceOnUse"><stop offset="0" stop-color="#b28df2"/><stop offset="0.5" stop-color="#8c9fd4"/><stop offset="1" stop-color="#8cd4c1"/></linearGradient><linearGradient id="Gradiente_sem_nome_4-2" x1="300.25" y1="-392.71" x2="291.66" y2="-398.02" xlink:href="#Gradiente_sem_nome_4"/></defs><title>menu_submit</title><path class="cls-1" d="M2,1.13H2A1.44,1.44,0,0,1,3.35-.37H9.1A1.23,1.23,0,0,1,10,0l1,1.06a2.82,2.82,0,0,0,2,.87h8a1.44,1.44,0,0,1,1.4,1.49V14.88A1.44,1.44,0,0,1,21,16.37H3.35A1.44,1.44,0,0,1,2,14.88H2Z" transform="translate(-1.15 1.17)"/><path class="cls-2" d="M18.57,9h-.46a2.18,2.18,0,0,0-2.17,2.18v.46a.12.12,0,0,1-.12.11.11.11,0,0,1-.12-.11v-.46A2.18,2.18,0,0,0,13.53,9h-.46A.11.11,0,0,1,13,8.92a.12.12,0,0,1,.12-.12h.46A2.17,2.17,0,0,0,15.7,6.62V6.17a.12.12,0,0,1,.12-.12.12.12,0,0,1,.12.12v.45A2.17,2.17,0,0,0,18.11,8.8h.46a.12.12,0,0,1,.12.12A.12.12,0,0,1,18.57,9Z" transform="translate(-1.15 1.17)"/></svg>