<svg id="Camada_1" data-name="Camada 1" xmlns="http://www.w3.org/2000/svg" xmlns:xlink="http://www.w3.org/1999/xlink" viewBox="0 0 25.55 18.23"><defs><style>.cls-1,.cls-2,.cls-3,.cls-4{fill:none;stroke-linecap:round;stroke-linejoin:round;stroke-width:1.6px;}.cls-1{stroke:url(#Gradiente_sem_nome_4);}.cls-2{stroke:url(#Gradiente_sem_nome_4-2);}.cls-3{stroke:url(#Gradiente_sem_nome_4-3);}.cls-4{stroke:url(#Gradiente_sem_nome_4-4);}</style><linearGradient id="Gradiente_sem_nome_4" x1="433.26" y1="-282.58" x2="425.19" y2="-287.86" gradientTransform="matrix(1, 0, 0, -1, -408.94, -272.14)" gradientUnits="userSpaceOnUse"><stop offset="0" stop-color="#b28df2"/><stop offset="0.5" stop-color="#8c9fd4"/><stop offset="1" stop-color="#8cd4c1"/></linearGradient><linearGradient id="Gradiente_sem_nome_4-2" x1="422.51" y1="-272.72" x2="411.98" y2="-279.24" xlink:href="#Gradiente_sem_nome_4"/><linearGradient id="Gradiente_sem_nome_4-3" x1="428.76" y1="-273.82" x2="421.37" y2="-277.24" xlink:href="#Gradiente_sem_nome_4"/><linearGradient id="Gradiente_sem_nome_4-4" x1="422.67" y1="-279.08" x2="412.96" y2="-292.81" xlink:href="#Gradiente_sem_nome_4"/></defs><title>menu_entities</title><path class="cls-1" d="M16.93,10c3.1.45,7.12,1.91,7.12,4.36v.38a2,2,0,0,1-2,2h-2.5" transform="translate(0.7 0.67)"/><path class="cls-2" d="M12,3.84A3.7,3.7,0,1,1,8.3.14,3.7,3.7,0,0,1,12,3.84Z" transform="translate(0.7 0.67)"/><path class="cls-3" d="M13.55.4a5,5,0,0,1,1.5-.27c2.49,0,4.05,1.59,4.05,3.57,0,2.37-1.56,3.83-4.05,3.83a4.69,4.69,0,0,1-1.5-.27" transform="translate(0.7 0.67)"/><path class="cls-4" d="M.1,14a1.88,1.88,0,0,1,.73-1.38A6.94,6.94,0,0,1,3,11.34,15.89,15.89,0,0,1,8.3,10.27a15.89,15.89,0,0,1,5.33,1.07,6.94,6.94,0,0,1,2.14,1.25A1.88,1.88,0,0,1,16.5,14v1.37a1.2,1.2,0,0,1-1.2,1.2H1.3a1.2,1.2,0,0,1-1.2-1.2Z" transform="translate(0.7 0.67)"/></svg>