<svg id="Camada_1" data-name="Camada 1" xmlns="http://www.w3.org/2000/svg" xmlns:xlink="http://www.w3.org/1999/xlink" viewBox="0 0 18 18"><defs><style>.cls-1{fill:none;stroke-linecap:round;stroke-linejoin:round;stroke-width:1.6px;stroke:url(#Gradiente_sem_nome_2);}</style><linearGradient id="Gradiente_sem_nome_2" x1="297.81" y1="-406.24" x2="284.77" y2="-385.17" gradientTransform="matrix(1, 0, 0, -1, -280.14, -386.44)" gradientUnits="userSpaceOnUse"><stop offset="0" stop-color="#b28df2"/><stop offset="0.5" stop-color="#8c9fd4"/><stop offset="1" stop-color="#8cd4c1"/></linearGradient></defs><title>menu_templates</title><path class="cls-1" d="M3,6V2.26a1.2,1.2,0,0,1,1.2-1.2H7.28a1.2,1.2,0,0,1,1.2,1.2V6a1.2,1.2,0,0,1-1.2,1.2H4.15A1.2,1.2,0,0,1,3,6ZM13.08,16.26v-14a1.2,1.2,0,0,1,1.2-1.2h3.87a1.2,1.2,0,0,1,1.2,1.2v14a1.2,1.2,0,0,1-1.2,1.2H14.28A1.2,1.2,0,0,1,13.08,16.26ZM3,16.26V12.9a1.2,1.2,0,0,1,1.2-1.2H7.28a1.2,1.2,0,0,1,1.2,1.2v3.36a1.2,1.2,0,0,1-1.2,1.2H4.15A1.2,1.2,0,0,1,3,16.26Z" transform="translate(-2.15 -0.26)"/></svg>