<?xml version="1.0" encoding="UTF-8"?>
<!-- Created with Inkscape (http://www.inkscape.org/) -->
<svg width="57.6" height="36.267" version="1.1" viewBox="0 0 54 34" xmlns="http://www.w3.org/2000/svg" xmlns:cc="http://creativecommons.org/ns#" xmlns:dc="http://purl.org/dc/elements/1.1/" xmlns:rdf="http://www.w3.org/1999/02/22-rdf-syntax-ns#">
 <metadata>
  <rdf:RDF>
   <cc:Work rdf:about="">
    <dc:format>image/svg+xml</dc:format>
    <dc:type rdf:resource="http://purl.org/dc/dcmitype/StillImage"/>
    <dc:title/>
   </cc:Work>
  </rdf:RDF>
 </metadata>
 <path d="m52.66 22.59c-0.84232-0.3864-0.68578-1.6643 0.2248-1.8352 0.21535-0.04039 0.53341 0.06767 0.71248 0.24211 0.20679 0.20143 0.2718 0.34438 0.2933 0.64498 0.01493 0.20779 0.0012 0.2973-0.06993 0.463-0.20226 0.47018-0.72075 0.68688-1.1606 0.48508zm0.60087-0.14439c0.47963-0.2004 0.62973-0.79607 0.3146-1.2485-0.15612-0.22413-0.55881-0.33051-0.84404-0.22298-0.18854 0.07107-0.365 0.27519-0.42938 0.49666-0.18547 0.63798 0.38264 1.2155 0.95882 0.9748zm-0.62054-0.74584v-0.53127h0.30607c0.33689 0 0.45561 0.0509 0.49624 0.21279 0.036 0.14347-0.03854 0.29585-0.17225 0.35207l-0.11825 0.04972 0.1102 0.17479c0.06061 0.09614 0.12358 0.19692 0.13994 0.22398 0.02049 0.03387 7.33e-4 0.0492-0.06316 0.0492-0.07219 0-0.12316-0.05254-0.2286-0.23569-0.10219-0.17748-0.15757-0.2358-0.22424-0.23612-0.08201-4.9e-4 -0.08853 0.01693-0.08853 0.2357 0 0.20988-0.0088 0.23612-0.0787 0.23612-0.07482 0-0.07872-0.02625-0.07872-0.53127zm0.58941-0.13684c0.07816-0.07814 0.07113-0.18664-0.01592-0.24625-0.02323-0.01591-0.12634-0.02919-0.22915-0.02952l-0.18693-4.87e-4v0.35418h0.17709c0.12395 0 0.20044-0.02335 0.2549-0.07782zm-44.272 0.55839c-0.3966-0.52963-5.4615-6.88-6.0915-7.6375-0.27404-0.3295-0.38087-0.43308-0.40592-0.39354-0.046665 0.07365-0.043192 4.7541 0.00421 5.6929 0.08507 1.6843 0.21322 1.9205 1.1058 2.0389 0.10528 0.01408 0.20801 0.04538 0.2283 0.06984 0.067798 0.08169 0.083808 0.2398 0.033736 0.33316l-0.049563 0.09238-1.6486-7.36e-4c-1.328-4.88e-4 -1.655-0.01081-1.6818-0.05305-0.050594-0.07981-0.040655-0.3328 0.014818-0.37723 0.027057-0.02167 0.18748-0.07159 0.3565-0.11094 0.52268-0.1217 0.62576-0.22307 0.72462-0.71265 0.053222-0.26356 0.064438-0.84102 0.078381-4.0354 0.018363-4.205 0.028707-4.0349-0.26934-4.4297-0.17966-0.23796-0.43732-0.38322-0.89189-0.50281-0.33135-0.087178-0.36242-0.11188-0.36168-0.28753 0.0011002-0.26041-0.071969-0.24817 1.4732-0.24684l1.4058 0.0012 0.19819 0.34658c0.47268 0.8266 1.3637 1.9992 2.9935 3.9392 0.52428 0.62408 1.3021 1.5586 1.7285 2.0767 0.4264 0.51812 0.84702 1.0217 0.93471 1.1191l0.15943 0.17709-0.012875-2.8925c-0.011111-2.4969-0.021909-2.9422-0.078843-3.2559-0.082715-0.4557-0.16107-0.65328-0.30815-0.77704-0.13026-0.10962-0.42357-0.20695-0.7333-0.24336-0.14225-0.01673-0.22018-0.04681-0.24596-0.09499-0.051008-0.09532-0.047895-0.34024 0.00474-0.37276 0.023361-0.01447 0.78732-0.02581 1.6977-0.02527 1.3354 7.35e-4 1.6616 0.0111 1.6885 0.05344 0.05069 0.07993 0.04077 0.33303-0.01474 0.37638-0.02706 0.02116-0.20857 0.07625-0.40337 0.1225-0.55544 0.13185-0.63613 0.25746-0.73373 1.1424-0.050462 0.45757-0.08498 6.4984-0.045516 7.9666 0.030735 1.1435 0.029541 1.1751-0.047175 1.2468-0.088644 0.08292-0.26691 0.15859-0.36658 0.15559-0.037783-0.0012-0.22705-0.21669-0.44015-0.50127zm41.634-0.07164c-0.71247-0.9308-5.7334-7.2096-6.1959-7.7481l-0.23643-0.2753-0.02464 0.2753c-0.03899 0.43586-0.03509 3.864 0.0057 5.0764 0.05203 1.5437 0.12418 1.9603 0.37816 2.1833 0.13906 0.12209 0.40846 0.21858 0.72904 0.26111 0.2726 0.03615 0.39448 0.237 0.2575 0.42431-0.04769 0.06521-0.16325 0.06995-1.6811 0.06895-1.507-9.79e-4 -1.6337-0.0061-1.6803-0.07002-0.06421-0.08783-0.06484-0.25659-0.0012-0.33779 0.02703-0.03453 0.1818-0.09223 0.34388-0.12818 0.55522-0.12319 0.65591-0.22411 0.74571-0.74735 0.07751-0.45159 0.11782-2.0611 0.11687-4.6649-9.79e-4 -2.7243-0.02179-3.233-0.14353-3.5081-0.17447-0.39448-0.49822-0.62893-1.0558-0.76457-0.15004-0.03651-0.29495-0.09402-0.322-0.12782-0.06354-0.07939-0.06301-0.24857 9.79e-4 -0.33619 0.04598-0.06289 0.16885-0.06935 1.45-0.0764l1.3998-0.0076 0.16538 0.31482c0.35063 0.66746 1.4793 2.1696 2.8239 3.7582 0.43049 0.50864 1.1527 1.3764 1.605 1.9283 1.1686 1.4262 1.3721 1.6578 1.4076 1.6019 0.0437-0.06876 0.03717-4.1217-0.0082-5.0176-0.05609-1.1106-0.13774-1.538-0.33963-1.7779-0.11343-0.13481-0.41618-0.25708-0.73533-0.29695-0.26418-0.03302-0.34191-0.09401-0.34108-0.26764 0.0012-0.24345-0.08378-0.23208 1.7245-0.23099 0.91091 4.9e-4 1.6746 0.01238 1.6971 0.02625 0.05761 0.03561 0.05103 0.35694-0.0084 0.40505-0.02707 0.02194-0.18366 0.06954-0.34801 0.10579-0.51656 0.11391-0.62442 0.22619-0.73575 0.76587-0.05332 0.25848-0.06329 0.91623-0.0746 4.9187-0.01024 3.6069-0.02376 4.6333-0.06193 4.6793-0.0545 0.06571-0.27084 0.16481-0.35982 0.16481-0.03173 0-0.25571-0.25871-0.49774-0.57491zm-29.474 0.46936c-0.54224-0.05609-1.2437-0.25976-1.7399-0.50514-1.9239-0.95154-3.028-3.0823-2.8315-5.4643 0.13037-1.5809 0.70165-2.8619 1.7063-3.8261 0.75438-0.72404 1.6457-1.1588 2.7466-1.3397 0.54789-0.09002 1.5296-0.05346 2.09 0.07788 2.0988 0.49183 3.5201 2.1891 3.8332 4.5775 0.4274 3.2603-1.4191 5.9986-4.3486 6.4487-0.33695 0.05177-1.0988 0.06801-1.4561 0.03107zm1.6528-0.75966c0.36895-0.12449 0.65367-0.29709 0.93846-0.56891 0.31471-0.30038 0.47088-0.51293 0.66761-0.90868 0.80938-1.6282 0.77672-4.4521-0.07289-6.3017-0.36036-0.78453-0.91566-1.4152-1.4964-1.6996-0.43655-0.21376-0.72039-0.2815-1.1765-0.28079-1.5493 0.0024-2.6002 1.1203-2.9776 3.1674-0.05852 0.3174-0.07259 0.59148-0.07272 1.4167-1.57e-4 0.90008 0.01081 1.0847 0.09168 1.5348 0.1297 0.72243 0.32474 1.3411 0.59557 1.889 0.49203 0.99543 1.1139 1.5585 1.9807 1.7934 0.38903 0.10543 1.1478 0.08467 1.5221-0.04164zm-11.06 0.53268c-0.0546-0.05461-0.0457-0.35959 0.01181-0.40515 0.02705-0.02144 0.19606-0.06131 0.37557-0.08858 0.48951-0.07446 0.62258-0.188 0.72272-0.61667 0.06068-0.25975 0.0934-7.3106 0.03724-8.0215-0.0716-0.90614-0.15444-1.0091-0.88956-1.1057-0.10822-0.01423-0.2189-0.04349-0.24596-0.06506-0.05995-0.04779-0.06567-0.36893-0.0071-0.40506 0.0231-0.01433 0.93954-0.02591 2.0365-0.02582l1.9945 1.16e-4 0.04955 0.09237c0.04972 0.09267 0.03415 0.25133-0.03255 0.3317-0.01962 0.02365-0.18423 0.06512-0.36578 0.0921-0.51791 0.07705-0.64465 0.19004-0.72978 0.65058-0.06635 0.35892-0.05793 8.1478 0.0092 8.4679 0.0915 0.43653 0.21306 0.53265 0.77399 0.61197 0.28539 0.04034 0.31454 0.05289 0.34836 0.1499 0.04002 0.11475 0.01832 0.30304-0.03898 0.33845-0.06408 0.03961-4.0101 0.03811-4.0497-0.0015zm14.446-0.05301c-0.04748-0.10421-0.05325-0.28388-0.01095-0.34511 0.01591-0.02308 0.18754-0.07482 0.38142-0.11495 0.80018-0.16566 1.1071-0.44092 2.0874-1.8724 0.34631-0.50566 0.84023-1.2211 1.0976-1.5898 0.58576-0.83923 0.66584-0.98407 0.63884-1.1556-0.01138-0.07204-0.161-0.35567-0.33259-0.63028-0.17162-0.27463-0.65316-1.0657-1.0701-1.758-1.434-2.3809-1.5361-2.5006-2.2818-2.6758-0.16233-0.03816-0.31729-0.08682-0.34434-0.10816-0.05597-0.04414-0.06524-0.29706-0.01394-0.37813 0.02813-0.0444 0.36969-0.05335 1.948-0.05113 1.0527 0.0016 1.9313 0.01337 1.9526 0.02663 0.05601 0.03461 0.04764 0.35675-0.01038 0.40287-0.02706 0.02147-0.16317 0.05146-0.30249 0.06663-0.30717 0.03345-0.47474 0.11216-0.47474 0.22299 0 0.12706 0.23025 0.55522 0.84884 1.5785 0.75647 1.2514 1.1566 1.8804 1.196 1.8804 0.06571 0 1.841-2.8013 2.0536-3.2405l0.09226-0.19058-0.08706-0.0705c-0.04789-0.03877-0.21602-0.10095-0.37363-0.13818-0.38566-0.09108-0.52272-0.26403-0.37227-0.46978 0.04867-0.06655 0.15075-0.07109 1.5795-0.07009 1.2331 7.35e-4 1.5339 0.01138 1.5609 0.0538 0.0508 0.08015 0.04107 0.33309-0.01462 0.37782-0.02704 0.02175-0.182 0.0692-0.34434 0.1054-0.65154 0.14534-0.83743 0.29529-1.5444 1.2458-1.0615 1.4272-2.0368 2.9307-2.0368 3.1398 0 0.1379 0.15994 0.41988 0.99596 1.756 1.0876 1.7382 1.8191 2.8308 2.0612 3.0788 0.2446 0.25053 0.5133 0.38174 0.96127 0.4694 0.18156 0.03554 0.35224 0.0818 0.3793 0.10281 0.05868 0.04559 0.06622 0.36757 0.0094 0.40267-0.02183 0.01365-0.98944 0.02494-2.1502 0.0254-1.7191 7.34e-4 -2.1166-9e-3 -2.1438-0.05177-0.05075-0.08003-0.04091-0.33305 0.01462-0.37721 0.02707-0.02151 0.19086-0.06957 0.36402-0.10683 0.35045-0.07539 0.49193-0.14681 0.49188-0.24831-7.7e-5 -0.164-0.46522-0.97648-1.6244-2.8374-0.4353-0.69882-0.47948-0.75626-0.52959-0.68869-0.29816 0.40211-1.7072 2.6752-1.9931 3.2154-0.23042 0.43529-0.19914 0.49224 0.31896 0.58069 0.14669 0.02504 0.28887 0.06323 0.31592 0.08487 0.05918 0.04732 0.06601 0.36884 0.0087 0.40433-0.02233 0.01394-0.76529 0.02814-1.651 0.03184l-1.6104 0.0066-0.04119-0.09039zm11.092 0.02412c-0.05184-0.09688-0.0433-0.33109 0.0138-0.37625 0.02707-0.02144 0.19606-0.06131 0.37557-0.08858 0.57055-0.0868 0.68865-0.23162 0.7542-0.92494 0.05476-0.57929 0.05484-7.2902 7.7e-5 -7.8707-0.06788-0.71939-0.16969-0.84219-0.77075-0.92946-0.17046-0.02475-0.33206-0.06255-0.35912-0.08402-0.05574-0.04421-0.06531-0.29718-0.01434-0.37768 0.02757-0.04351 0.39675-0.05299 2.0356-0.05229 1.9792 7.36e-4 2.0025 0.0019 2.0559 0.08218 0.06999 0.10542 0.02831 0.34606-0.06455 0.3727-0.03713 0.01067-0.20381 0.04049-0.37041 0.06631-0.49568 0.07682-0.62185 0.19801-0.69861 0.67106-0.056 0.34509-0.05572 7.9893 4.91e-4 8.3383 0.08313 0.51792 0.20431 0.62859 0.78477 0.71668l0.3345 0.05076 0.03588 0.1452c0.02672 0.10806 0.0217 0.16652-0.01968 0.22862-0.05525 0.083-0.06561 0.08345-2.0566 0.0909-1.8404 0.0069-2.0039 0.0022-2.0365-0.05879z" fill="#88888c"/>
</svg>
