<svg id="Camada_1" data-name="Camada 1" xmlns="http://www.w3.org/2000/svg" viewBox="0 0 284.33 74.02"><defs><style>.cls-1{fill:#8dffe1;}.cls-2,.cls-3{fill:#fff;}.cls-3{fill-rule:evenodd;}</style></defs><title>now</title><path class="cls-1" d="M188.17,114.5H173.86v19.74h14.31c5.1,0,9.58-3.16,9.58-9.87S193.27,114.5,188.17,114.5ZM186.26,130h-7.33V118.76h7.33c3.83,0,6.42.82,6.42,5.61S190.09,130,186.26,130Zm25.43,4.54c8.65,0,12.39-3.64,12.39-10.18s-3.74-10.12-12.39-10.12-12.39,3.58-12.39,10.12S203,134.52,211.69,134.52Zm0-4.26c-5.27,0-7.32-1.86-7.32-5.92s2-5.86,7.32-5.86,7.32,1.86,7.32,5.86S217,130.26,211.69,130.26Zm14-5.92c0,6.57,3.71,10.18,12.39,10.18,7.85,0,11.8-3,12.3-8.74h-5.15c-.48,3.21-3,4.48-7.15,4.48-5.13,0-7.33-1.86-7.33-5.92s2.17-5.86,7.33-5.86c4.22,0,6.67,1.24,7.15,4.42h5.15c-.5-5.69-4.45-8.68-12.3-8.68C229.36,114.22,225.65,117.8,225.65,124.34Zm25.9,3.1c0,5.7,4.82,7.08,12.9,7.08,7.29,0,12.28-1.07,12.28-6.35,0-5-4.82-5.41-12.59-5.83-5.74-.34-6.93-.62-6.93-2.14s1.19-2,6.17-2c5.27,0,7.44.54,7.44,2.71h5.07c0-4.88-4.51-6.74-11.95-6.74s-11.8,1.38-11.8,5.72,3.41,5.78,12,6.18c6.39.31,7.52.59,7.52,2.22s-1.6,2.15-6.93,2.15c-6.42,0-8.11-1-8.11-3.05Z" transform="translate(-38.67 -60.49)"/><path class="cls-2" d="M38.67,65.93v33.7H53.38a5.46,5.46,0,0,0,5.44-5.44V78.07L81.69,98A6.53,6.53,0,0,0,86,99.63h18.33a5.45,5.45,0,0,0,5.44-5.44V60.49H94.62c-3,0-4.64,1.6-4.64,4.45V91L56.87,62.09a6.53,6.53,0,0,0-4.29-1.6H44.1A5.45,5.45,0,0,0,38.67,65.93Z" transform="translate(-38.67 -60.49)"/><path class="cls-3" d="M178.81,60.49H133.1a19.81,19.81,0,0,0-19.79,20,19.48,19.48,0,0,0,19.4,19.18H179.2a19.48,19.48,0,0,0,19.4-19.18A19.81,19.81,0,0,0,178.81,60.49Zm-31.16,33.8c-7.46,0-13.76-7-13.6-14.5.13-7.3,6-14,13.3-14H164.6c7.28,0,13.17,6.66,13.31,14,.13,7.52-6.14,14.5-13.6,14.5Z" transform="translate(-38.67 -60.49)"/><path class="cls-2" d="M304.78,62.09a6.58,6.58,0,0,1,4.3-1.6H323L279.91,98a6.58,6.58,0,0,1-4.3,1.6H257.72a5.77,5.77,0,0,1-5.8-5.44V78.07L229.37,98a6.58,6.58,0,0,1-4.3,1.6h-17.9c-3,0-5-2.45-5-5.44V60.49h14.27a5.45,5.45,0,0,1,5.44,5.44V90.28l32.35-28.19a6.58,6.58,0,0,1,4.3-1.6h7.61a5.56,5.56,0,0,1,5.56,5.44V91Z" transform="translate(-38.67 -60.49)"/></svg>