<?xml version="1.0" encoding="UTF-8"?>
<!-- Created with Inkscape (http://www.inkscape.org/) -->
<svg width="97.067" height="36.267" version="1.1" viewBox="0 0 91.000001 34.000001" xmlns="http://www.w3.org/2000/svg" xmlns:cc="http://creativecommons.org/ns#" xmlns:dc="http://purl.org/dc/elements/1.1/" xmlns:rdf="http://www.w3.org/1999/02/22-rdf-syntax-ns#">
 <metadata>
  <rdf:RDF>
   <cc:Work rdf:about="">
    <dc:format>image/svg+xml</dc:format>
    <dc:type rdf:resource="http://purl.org/dc/dcmitype/StillImage"/>
    <dc:title/>
   </cc:Work>
  </rdf:RDF>
 </metadata>
 <g transform="translate(0 -1018.4)">
  <path d="m3.751 1043.3c-1.0829-0.1682-2.014-0.5764-2.6552-1.1639-0.42319-0.3876-0.96372-1.1308-0.91501-1.2578 0.018258-0.047 0.38688-0.1742 0.88353-0.3037 0.46872-0.122 0.89796-0.2355 0.95388-0.252 0.060579-0.018 0.14454 0.024 0.20778 0.1027 0.75928 0.9486 1.487 1.2593 2.9559 1.2617 1.137 0 1.8934-0.2404 2.1705-0.6949 0.15778-0.2587 0.15342-0.6877-0.0091-0.8943-0.23911-0.3041-0.52201-0.3871-2.3549-0.6916-1.954-0.3248-2.229-0.391-2.848-0.6864-1.0113-0.4827-1.5202-1.4322-1.338-2.4961 0.27424-1.6012 1.7556-2.4544 4.2608-2.4544 1.8125 0 3.1411 0.4449 4.0772 1.3653 0.44138 0.434 0.61605 0.737 0.475 0.8243-0.035752 0.023-0.49552 0.1454-1.0217 0.274l-0.95672 0.2339-0.20894-0.2514c-0.45455-0.5473-1.2086-0.7964-2.4242-0.8008-0.57764 0-0.8672 0.025-1.151 0.1059-1.1081 0.3178-1.1874 1.3873-0.12546 1.6929 0.11428 0.033 0.99741 0.2051 1.9625 0.3826 2.2522 0.4141 2.8141 0.61 3.3629 1.1718 0.35364 0.3618 0.55673 0.8401 0.59509 1.4012 0.11935 1.7459-1.0757 2.8745-3.3379 3.1516-0.69049 0.085-1.9465 0.076-2.5589-0.021zm43.657-0.01c-1.5653-0.2436-2.6059-0.8623-3.3833-2.0116-0.16239-0.2401-0.20585-0.4157-0.11654-0.4708 0.02584-0.016 0.45997-0.1395 0.96475-0.2744l0.91777-0.2456 0.11874 0.1672c0.3837 0.5398 0.96679 0.9205 1.7002 1.1096 0.77684 0.2006 1.9299 0.1753 2.6483-0.058 1.0013-0.325 1.2191-1.369 0.35757-1.7148-0.1394-0.056-1.0282-0.2324-1.9751-0.3921-0.94694-0.1598-1.9087-0.3466-2.1373-0.4153-0.9203-0.2764-1.5527-0.749-1.8775-1.4034-0.12366-0.249-0.14088-0.3674-0.14096-0.9677-5.7e-5 -0.6509 0.0093-0.7029 0.1915-1.0731 0.53822-1.0934 1.7652-1.6865 3.6377-1.7584 1.8351-0.071 3.2244 0.2846 4.221 1.0789 0.45752 0.3646 0.86794 0.9012 0.7872 1.0293-0.03846 0.061-0.38502 0.1781-0.94632 0.3196-0.902 0.2278-1.1528 0.266-1.1528 0.1765 0-0.1061-0.43606-0.4924-0.71561-0.634-0.86574-0.4387-2.5472-0.4902-3.3151-0.1013-0.76515 0.3876-0.70903 1.2486 0.09933 1.5242 0.15412 0.052 1.0149 0.2282 1.9129 0.3905 0.89796 0.1621 1.8284 0.3491 2.0678 0.4156 0.89798 0.249 1.5589 0.7237 1.8379 1.3195 0.18462 0.3946 0.25882 0.9897 0.1869 1.4995-0.24093 1.7071-1.8398 2.5975-4.6268 2.5766-0.40818 0-0.9761-0.042-1.2621-0.088zm-35.535-0.098c-0.10314-0.1032-0.10314-9.1347 0-9.2379 0.11289-0.1129 8.2598-0.102 8.3537 0.012 0.0461 0.055 0.06297 0.3414 0.05181 0.8757l-0.01661 0.7932-3.2505 0.015-3.2505 0.015v1.8978l2.924 0.016 2.9239 0.016 0.01665 0.7968c0.01247 0.5977-0.0024 0.8089-0.05938 0.8451-0.04178 0.027-1.3651 0.048-2.9406 0.049h-2.8646v2.1958l3.2505 0.015 3.2505 0.015 0.01661 0.7933c0.01123 0.5344-0.0057 0.8203-0.05181 0.8757-0.09392 0.1132-8.2408 0.1241-8.3537 0.012zm10.838 0.011c-0.0975-0.06-0.1039-0.3452-0.1039-4.6252 0-3.9391 0.01191-4.5711 0.0872-4.6336 0.06704-0.055 0.80537-0.066 3.1911-0.046 2.9407 0.025 3.1283 0.033 3.5684 0.1528 0.25549 0.07 0.59641 0.1987 0.75759 0.2864 0.38999 0.2123 0.85471 0.7133 1.052 1.1342 0.14486 0.3092 0.16001 0.4064 0.15965 1.0243-9.48e-4 0.7942-0.08863 1.0562-0.50872 1.5118l-0.25255 0.2741 0.14336 0.097c0.30559 0.2061 0.67011 0.6446 0.84799 1.0201 0.17617 0.3718 0.18591 0.4296 0.18591 1.1048 0 0.6776-0.0093 0.7319-0.18909 1.1115-0.25823 0.5451-0.65201 0.9507-1.171 1.2061-0.78004 0.3836-0.89766 0.3949-4.4581 0.4219-2.2282 0.017-3.2376 0-3.3098-0.04zm6.2435-1.725c0.60323-0.1293 0.955-0.5144 0.955-1.0452 0-0.1758-0.03641-0.4068-0.08098-0.5134-0.10324-0.2471-0.39481-0.493-0.67781-0.5716-0.13334-0.037-1.085-0.061-2.4026-0.061h-2.1818v2.256h2.0453c1.2346 0 2.1633-0.025 2.3429-0.064zm-0.14332-3.9792c0.76896-0.2097 0.92512-1.1829 0.26716-1.6651-0.2559-0.1877-0.73214-0.2288-2.6501-0.2288h-1.862v1.9592h2.0037c1.2606 0 2.0918-0.024 2.2412-0.065zm3.8309 5.6776c-0.08477-0.1021-0.2594 0.2514 2.7724-5.6123l1.8879-3.6511 0.83677-0.017c0.65206-0.013 0.8517 0 0.90436 0.065 0.03718 0.044 1.1112 2.1181 2.3868 4.6073 1.8851 3.6787 2.3059 4.542 2.248 4.6118-0.05797 0.071-0.25509 0.083-1.0573 0.071l-0.98601-0.016-0.53432-1.0539-0.53433-1.0537h-4.8683l-0.53433 1.0537-0.53432 1.0539-0.9563 0.016c-0.79616 0.014-0.96881 0-1.031-0.074zm6.2884-5.3219c-0.42651-0.8525-0.78292-1.5404-0.79203-1.5288-0.0091 0.012-0.3679 0.7093-0.79734 1.5502l-0.78078 1.5288h3.1456zm19.31 5.3378c-0.05391-0.054-0.07124-0.9789-0.07124-3.7997v-3.7283h-1.6575c-0.91162 0-1.6998-0.016-1.7514-0.037-0.14042-0.054-0.14042-1.6552 0-1.7091 0.05165-0.02 2.0367-0.036 4.4111-0.036 3.2787 0 4.3344 0.017 4.3885 0.072 0.04788 0.047 0.07125 0.3167 0.07125 0.8193s-0.02337 0.7714-0.07125 0.8193c-0.05205 0.052-0.52376 0.072-1.7514 0.072h-1.6802v3.7062c0 3.2903-0.01053 3.7169-0.09329 3.7998-0.07577 0.075-0.24655 0.093-0.90835 0.093-0.55478 0-0.83782-0.023-0.88631-0.072zm7.5429 0.032c-0.05848-0.024-0.0742-1.0092-0.0742-4.6495 0-4.1576 0.0094-4.623 0.09391-4.6554 0.18233-0.07 1.719-0.039 1.794 0.035 0.10314 0.1031 0.10314 9.1347 0 9.2379-0.07095 0.072-1.6482 0.099-1.8137 0.032zm3.135-0.046c-0.05717-0.069 0.37995-0.9568 2.287-4.6456 1.2967-2.5083 2.3872-4.5801 2.4234-4.6041 0.03613-0.024 0.41554-0.044 0.84312-0.044 0.66724 0 0.79022 0.014 0.86754 0.103 0.04955 0.057 1.124 2.121 2.3876 4.5863 1.6835 3.2845 2.2829 4.5062 2.243 4.5714-0.04414 0.072-0.23448 0.092-0.99806 0.1039-0.51893 0.01-0.97366-0.01-1.0105-0.03-0.03685-0.025-0.29748-0.5054-0.57919-1.0687l-0.5122-1.024h-4.8973l-0.47496 0.9886c-0.26122 0.5437-0.51025 1.0239-0.5534 1.0669-0.11802 0.1181-1.9274 0.1122-2.0259-0.01zm6.2827-5.3318-0.77945-1.558-0.76118 1.5135c-0.41866 0.8324-0.76263 1.5335-0.76439 1.5581-0.0019 0.025 0.69153 0.044 1.5406 0.044h1.5438l-0.77943-1.5581zm6.1341 5.3457c-0.10315-0.1031-0.10315-9.1347 0-9.2379 0.04832-0.048 0.32717-0.072 0.86672-0.072h0.79548l0.15739 0.1688c0.08659 0.093 1.4131 1.5769 2.9478 3.2982l2.7904 3.1294 0.01536-3.2505c0.01187-2.5099 0.03215-3.261 0.08905-3.2973 0.08617-0.054 1.5336-0.065 1.6718-0.013 0.08451 0.033 0.0939 0.4977 0.0939 4.6541 0 4.1563-0.0094 4.6217-0.0939 4.6541-0.18562 0.072-1.6009 0.04-1.6971-0.038-0.05056-0.041-1.3848-1.5028-2.965-3.2491l-2.873-3.1748-0.01536 3.2015c-0.01187 2.4704-0.03221 3.2118-0.08905 3.248-0.12351 0.078-1.6133 0.058-1.6945-0.023zm-64.023-12.416c-0.96052-0.2713-1.4517-1.4452-1.013-2.4212 0.46986-1.0453 1.9644-1.2693 2.7643-0.4142 0.76546 0.8183 0.5248 2.2577-0.45694 2.733-0.32762 0.1586-0.92744 0.206-1.2943 0.1024zm1.1425-0.381c0.60402-0.3063 0.88605-1.0031 0.68538-1.6935-0.18538-0.6376-0.65291-0.9903-1.3126-0.9903-0.64627 0-1.1233 0.3503-1.3036 0.9572-0.11511 0.3876-0.11488 0.5432 0.0014 0.9347 0.24212 0.8153 1.1491 1.1876 1.9294 0.7919zm22.713 0.3732c-0.12613-0.045-0.30737-0.1565-0.40277-0.2479l-0.17344-0.1663 0.13561-0.1024c0.13023-0.099 0.1415-0.097 0.28404 0.036 0.30946 0.2875 0.60344 0.3432 0.98089 0.1855 0.24595-0.1029 0.42028-0.4172 0.36141-0.6517-0.05533-0.2205-0.21272-0.3584-0.54771-0.48-0.9458-0.3434-1.1152-0.5053-1.1085-1.0601 0.0042-0.3551 0.13756-0.5538 0.4932-0.7356 0.41539-0.2123 0.99303-0.1486 1.3176 0.1451 0.13507 0.1222 0.13321 0.1509-0.01593 0.244-0.10605 0.066-0.14544 0.056-0.30141-0.075-0.30216-0.2542-0.95028-0.1716-1.1185 0.1426-0.09896 0.185-0.07085 0.5093 0.05837 0.6736 0.06748 0.085 0.25485 0.1958 0.43043 0.2527 0.89451 0.2902 1.1124 0.4842 1.1124 0.9899 0 0.6788-0.76886 1.1126-1.5058 0.85zm7.6586 0c-0.12613-0.045-0.30737-0.1565-0.40277-0.2479l-0.17344-0.1663 0.13561-0.1024c0.13038-0.099 0.14134-0.097 0.28404 0.039 0.52974 0.5045 1.3655 0.2467 1.3655-0.4217 0-0.2004-0.21332-0.3982-0.56654-0.5254-0.57846-0.2082-0.88885-0.3828-0.99237-0.5579-0.1427-0.2415-0.13462-0.6987 0.01673-0.9469 0.29128-0.4777 1.2178-0.5764 1.6461-0.1752 0.16398 0.1536 0.1649 0.175 0.01157 0.2708-0.10605 0.066-0.14544 0.056-0.30139-0.076-0.20087-0.169-0.58125-0.2047-0.85471-0.08-0.27267 0.1242-0.40926 0.551-0.26352 0.8233 0.07182 0.1343 0.37138 0.2938 0.82919 0.4417 0.62145 0.2011 0.80972 0.4452 0.75799 0.9835-0.06203 0.6456-0.7709 0.9972-1.492 0.7402zm14.52-0.022c-0.43494-0.1552-0.72314-0.4063-0.93161-0.8115-0.1523-0.296-0.17694-0.4084-0.17457-0.7957 0.0066-1.0923 0.76554-1.7986 1.8399-1.7123 0.67166 0.054 1.1787 0.4405 1.4256 1.0867 0.13611 0.3565 0.09447 1.0876-0.08142 1.4295-0.38126 0.741-1.2796 1.0883-2.0779 0.8033zm1.0754-0.2826c0.51216-0.1745 0.87162-0.729 0.87162-1.3445 0-0.5741-0.27496-1.0362-0.75635-1.2718-0.27643-0.1351-0.36825-0.1507-0.73495-0.1245-0.33511 0.024-0.46853 0.064-0.6661 0.2011-0.55278 0.383-0.74511 1.2576-0.42007 1.9099 0.30678 0.6155 0.99833 0.871 1.7058 0.6298zm-63.663-1.3378v-1.6697l0.67257 0.026c0.73331 0.028 0.95446 0.1062 1.1879 0.4194 0.15426 0.207 0.16484 0.677 0.020243 0.898-0.18704 0.2853-0.3786 0.3617-0.98752 0.3936l-0.56667 0.03-0.016549 0.7867-0.016549 0.7865h-0.2934v-1.6696zm1.5166-0.3757c0.15887-0.1588 0.19655-0.4794 0.081582-0.6944-0.097648-0.1823-0.42142-0.2879-0.88385-0.2879h-0.41749v1.128h0.53703c0.491 0 0.5495-0.013 0.68274-0.1457zm6.2298 1.9746c-0.016738-0.043-0.023282-0.7869-0.014557-1.6517l0.015837-1.5723h0.68275c0.52008 0 0.72746 0.027 0.87045 0.1027 0.69397 0.3681 0.62458 1.2849-0.11668 1.5415l-0.22054 0.076 0.44581 0.7352c0.2452 0.4044 0.44582 0.7596 0.44582 0.7895 0 0.03-0.07097 0.046-0.15769 0.035-0.13273-0.016-0.23166-0.1431-0.62557-0.8053l-0.4679-0.7868h-0.52648l-0.016596 0.7868c-0.016122 0.7652-0.020198 0.787-0.15041 0.8055-0.073619 0.011-0.14754-0.017-0.16428-0.06zm1.4152-1.898c0.19649-0.1045 0.27413-0.2358 0.27622-0.4669 0.0038-0.4216-0.28056-0.591-0.99256-0.5917l-0.37106-3e-4v1.128h0.47886c0.26338 0 0.53722-0.032 0.60854-0.07zm15.386 1.898c-0.01675-0.043-0.02328-0.7869-0.01455-1.6517l0.01584-1.5723h0.9796c0.97067 0 0.97976 0 0.99856 0.1336 0.01892 0.1329 0.01593 0.1335-0.81634 0.1335h-0.83529v1.1246l0.75695 0.017c0.73402 0.016 0.75754 0.021 0.77592 0.15 0.01887 0.1328 0.0137 0.1337-0.75523 0.1337h-0.77421l-0.01656 0.7866c-0.01612 0.7654-0.0202 0.7872-0.15041 0.8057-0.07361 0.011-0.14754-0.017-0.16428-0.06zm7.6571 0c-0.01584-0.041-0.02171-0.7826-0.01299-1.6476l0.01584-1.5722 0.99443-0.016 0.99444-0.016v0.2998h-1.6623v1.1279h1.5436v0.297h-1.5436v1.3061h1.7217v0.2968h-1.0111c-0.76082 0-1.0183-0.019-1.04-0.076zm23.187-1.5831v-1.6664h0.29873l-0.01579 1.6474-0.01579 1.6476-0.13357 0.019-0.13359 0.019v-1.6665zm15.258 0v-1.6702l0.19168 0.019c0.177 0.017 0.26668 0.1259 1.1725 1.4203l0.98088 1.4016 0.01589-1.4166 0.01589-1.4165h0.29473v3.3322l-0.19266-0.019c-0.17851-0.017-0.26461-0.1221-1.1726-1.4254l-0.97989-1.4067-0.02968 1.4067c-0.02963 1.4034-0.03001 1.4068-0.16328 1.4258l-0.13358 0.019v-1.6702zm8.7431 1.5488c0.01778-0.068 0.33543-0.8184 0.70588-1.6674 0.89381-2.0484 0.76974-2.0495 1.6404 0.014 0.36161 0.8572 0.66603 1.5985 0.67646 1.6475 0.01284 0.06-0.0284 0.09-0.12717 0.09-0.15525 0-0.21132-0.079-0.41675-0.5789l-0.11564-0.2819h-1.7269l-0.09039 0.2258c-0.19406 0.4849-0.2939 0.6349-0.43641 0.655-0.11834 0.017-0.13651-4e-4 -0.10953-0.1036zm2.2222-1.1484c-0.01692-0.04-0.16874-0.4081-0.33733-0.8163-0.16859-0.4081-0.32457-0.7602-0.34662-0.7823-0.02205-0.023-0.2045 0.3452-0.40545 0.8163l-0.36536 0.8565h0.74277c0.57105 0 0.73566-0.017 0.71199-0.073zm6.6081-0.4304v-1.6327h0.29685v2.9684h1.5436v0.297h-1.8404z" fill="#88888c"/>
 </g>
</svg>
