<?xml version="1.0" encoding="UTF-8"?>
<!-- Created with Inkscape (http://www.inkscape.org/) -->
<svg width="49mm" height="34mm" version="1.1" viewBox="0 0 173.62205 120.47244" xmlns="http://www.w3.org/2000/svg" xmlns:cc="http://creativecommons.org/ns#" xmlns:dc="http://purl.org/dc/elements/1.1/" xmlns:rdf="http://www.w3.org/1999/02/22-rdf-syntax-ns#">
 <metadata>
  <rdf:RDF>
   <cc:Work rdf:about="">
    <dc:format>image/svg+xml</dc:format>
    <dc:type rdf:resource="http://purl.org/dc/dcmitype/StillImage"/>
    <dc:title/>
   </cc:Work>
  </rdf:RDF>
 </metadata>
 <g transform="translate(0 -931.89)">
  <path d="m36.503 1051.7c-2.5572-0.6877-4.1218-2.9375-4.127-5.9344-9e-3 -3.5268 2.366-5.9936 5.7635-5.9936 2.7407 0 4.8948 1.6374 5.59 4.2494 0.21961 0.8251 0.21735 2.697 0 3.5479-0.55249 2.1211-2.0041 3.6155-4.0228 4.1414-0.84109 0.219-2.3637 0.214-3.1992-0.011zm3.3502-2.0797c0.72493-0.3713 1.2738-0.9732 1.6829-1.8452 0.27147-0.5787 0.30592-0.7983 0.30592-1.946 0-1.1478-0.03428-1.3674-0.30592-1.946-0.66036-1.408-1.6823-2.1205-3.1591-2.2028-1.619-0.09-2.8459 0.6184-3.5512 2.0512-0.31936 0.6486-0.38898 0.9401-0.43011 1.8002-0.08298 1.7296 0.49883 3.0743 1.6675 3.8553 0.77841 0.5201 1.1518 0.6154 2.2506 0.5748 0.73584-0.027 1.0713-0.1018 1.5395-0.3415zm42.062 2.0355c-1.1592-0.3132-2.4957-0.9826-2.4957-1.2499 0-0.072 0.20978-0.4545 0.46618-0.8512l0.46618-0.7214 0.85697 0.455c0.47132 0.2503 1.1403 0.5204 1.4867 0.6002 0.89097 0.2054 2.236 0.1 2.7462-0.2156 0.96168-0.5943 0.89566-1.8971-0.12257-2.4222-0.17217-0.088-0.93742-0.3245-1.7005-0.5238-2.286-0.5971-3.0409-1.0331-3.5466-2.0478-0.59867-1.2013-0.31927-3.0135 0.59686-3.8714 1.2484-1.169 3.9056-1.3628 6.2777-0.4581 1.0706 0.4084 1.0468 0.356 0.59118 1.2977-0.22078 0.4563-0.4375 0.8298-0.4817 0.8298-0.04419 0-0.36463-0.1255-0.71231-0.2788-1.7627-0.7772-3.7695-0.6972-4.3802 0.1746-0.21356 0.305-0.25469 1.061-0.07576 1.3951 0.20969 0.3919 0.87816 0.696 2.4493 1.1143 1.8544 0.4936 2.5588 0.8303 3.1273 1.4945 0.53445 0.6245 0.69201 1.1998 0.64024 2.3387-0.03427 0.7494-0.09885 0.9901-0.39701 1.4744-0.38186 0.6204-1.2059 1.2522-1.9163 1.469-0.23783 0.073-1.0146 0.1537-1.7262 0.1802-1.03 0.038-1.4683 9e-4 -2.15-0.1833zm14.477 0c-0.83368-0.2254-1.8727-0.6796-2.3279-1.0177l-0.23314-0.1731 0.26362-0.4964c0.14502-0.2729 0.38222-0.6433 0.52715-0.823l0.26358-0.3266 0.45525 0.3111c0.85267 0.5829 1.6666 0.8057 2.9555 0.8094 1.0149 0 1.2338-0.032 1.597-0.2584 0.97599-0.6071 0.91853-1.904-0.10781-2.4331-0.17216-0.088-0.93737-0.3245-1.7004-0.5239-2.3165-0.605-3.0496-1.0359-3.569-2.0976-0.25686-0.5248-0.31539-0.8055-0.31043-1.4877 9e-3 -0.9739 0.21005-1.5276 0.79888-2.1794 1.1763-1.3019 3.9148-1.5637 6.4086-0.6125 1.0707 0.4085 1.0468 0.356 0.59121 1.2976-0.22079 0.4564-0.43755 0.8299-0.48169 0.8299-0.0441 0-0.3647-0.1254-0.71234-0.2788-1.7627-0.7771-3.7695-0.6973-4.3801 0.1746-0.21359 0.305-0.25471 1.0611-0.07585 1.3952 0.21024 0.3928 0.87943 0.6962 2.4688 1.1194 1.7753 0.4726 2.5618 0.8513 3.1182 1.5014 0.51062 0.5966 0.69224 1.2909 0.62236 2.3796-0.0697 1.0859-0.47141 1.8159-1.3095 2.3794-0.77572 0.5216-1.2244 0.6354-2.7225 0.6912-1.0257 0.037-1.4689 9e-4 -2.1393-0.1806zm25.381 0.041c-2.6202-0.7046-4.1788-2.9459-4.1664-5.9911 7e-3 -1.7934 0.54277-3.1688 1.6739-4.2999 2.6656-2.6657 7.411-2.0042 9.1598 1.277 0.97381 1.827 0.95036 4.5453-0.0551 6.3928-0.39476 0.7252-1.2825 1.6402-1.9984 2.0599-1.1974 0.7017-3.1902 0.9442-4.6137 0.5613zm3.316-2.0904c2.3141-1.1353 2.8208-4.9815 0.90822-6.894-0.74652-0.7465-1.4265-1.0035-2.6497-1.0011-1.1875 0-1.6836 0.1894-2.5305 0.9544-1.6844 1.5218-1.6244 4.8629 0.11547 6.4273 0.74699 0.6715 1.4606 0.913 2.5914 0.8768 0.69337-0.023 1.0282-0.1 1.5651-0.3634zm-123.18-3.7808v-5.9393h2.3817c2.7428 0 3.7503 0.1177 4.5428 0.5194 1.1469 0.5812 1.683 1.4686 1.7553 2.9054 0.09019 1.7897-0.53698 2.9117-1.9984 3.5755l-0.74189 0.337-1.9701 0.048-1.97 0.048v2.2212 2.2211h-0.99974-0.99974v-5.9395zm5.9534-0.7129c0.60047-0.4488 0.80935-0.8416 0.80935-1.5216 0-0.7216-0.25045-1.1498-0.8944-1.529-0.34001-0.2003-0.65711-0.2412-2.1341-0.2754l-1.7348-0.04v1.8421 1.8419l1.8149-0.037c1.6151-0.033 1.8505-0.064 2.1391-0.2802zm9.3363 0.7129v-5.9393h2.4993c1.3746 8e-4 2.8589 0.054 3.2984 0.1177 1.3132 0.1899 2.3001 0.8272 2.8195 1.8206 0.3447 0.6592 0.42866 2.3317 0.15332 3.0526-0.29122 0.7627-0.81296 1.4201-1.3994 1.7637l-0.51894 0.3042 1.2196 2.3439c0.67082 1.2892 1.2197 2.3732 1.2197 2.4089 0 0.036-0.49071 0.065-1.0905 0.065h-1.0904l-1.1124-2.2348-1.1124-2.2345h-1.4432-1.4432v2.2345 2.2348h-0.99974-0.99974v-5.9395zm6.1886-0.7129c0.60038-0.4488 0.80096-0.8298 0.80096-1.5216 0-0.7332-0.24098-1.1491-0.88601-1.529-0.34398-0.2026-0.65594-0.2408-2.2517-0.275l-1.8524-0.039v1.8412 1.8411l1.9324-0.036c1.7347-0.033 1.9657-0.062 2.2568-0.2798zm27.096 0.7129v-5.9393h4.0577 4.0577v0.9408 0.9409h-3.1167-3.1167v1.529 1.529h2.7639 2.7639v0.9409 0.9408h-2.7639-2.7639v2.5289 2.5285h-0.94093-0.94093v-5.9395zm14.584 0v-5.9393h4.1164 4.1165v0.9408 0.9409h-3.1167-3.1167v1.529 1.529h2.8227 2.8227v0.882 0.8822h-2.8227-2.8227v1.6465 1.6467h3.1755 3.1755v0.9408 0.9409h-4.1752-4.1753v-5.9395zm43.987 0v-5.9393h0.99971 0.99971v5.9393 5.9395h-0.99971-0.99971v-5.9395zm26.698 0v-5.9393h0.86396 0.86395l2.7526 4.0467 2.7526 4.0467 0.0309-4.0467 0.031-4.0467h0.99818 0.99819v5.9393 5.9395h-0.91841-0.91842l-2.757-4.0655-2.757-4.0654-0.031 4.0654-0.0309 4.0655h-0.93937-0.93939v-5.9395zm15.172 5.8628c0-0.042 1.0153-2.7168 2.2561-5.9438l2.2561-5.8672 0.928 0.033 0.928 0.034 2.2261 5.8183c1.2244 3.2002 2.2261 5.8598 2.2261 5.9101 0 0.05-0.4702 0.092-1.0449 0.092h-1.0449l-0.29626-0.794c-0.16297-0.4365-0.41105-1.0982-0.55134-1.4702l-0.25505-0.6761h-2.2177-2.2178l-0.24883 0.6761c-0.13687 0.372-0.38347 1.0337-0.54799 1.4702l-0.29915 0.794h-1.0482c-0.57652 0-1.0482-0.034-1.0482-0.078zm6.9126-4.7749c-0.52725-1.498-1.4398-3.8518-1.4933-3.8518-0.0581 0-0.39754 0.8672-1.5085 3.8518-0.0421 0.1131 0.30534 0.1471 1.4994 0.1471 1.1925 0 1.5421-0.034 1.5024-0.1471zm9.7884-1.0879v-5.9393h0.99971 0.99971v4.9985 4.9986h1.7642 1.7642v0.9408 0.9409h-2.7639-2.7639v-5.9395zm-160.13-12.101c-1.5625-0.3061-3.1116-0.9785-4.2777-1.8568l-0.63177-0.4758 1.6922-1.6923 1.6922-1.692 0.93895 0.4715c1.6251 0.8161 3.1523 0.8542 4.7369 0.118 0.98278-0.4565 1.6862-1.0506 2.2575-1.9059 1.186-1.776 1.2562-4.1474 0.17379-5.8621-0.15936-0.2524-0.28968-0.5003-0.28968-0.551 0-0.05 0.73927-0.83 1.6428-1.7317l1.6428-1.6397 0.27237 0.2558c0.48512 0.4558 1.3631 2.0589 1.7219 3.1441 0.45157 1.3659 0.64512 2.7942 0.54699 4.0359-0.35507 4.4935-3.3809 8.1006-7.7675 9.2596-0.97917 0.2589-3.3194 0.3246-4.3517 0.1224zm61.413 0.043c-0.88069-0.1478-2.1726-0.5681-2.955-0.9613-0.8971-0.451-2.0623-1.2608-2.0623-1.4334 0-0.072 0.7289-0.859 1.6198-1.7482l1.6197-1.6166 0.93832 0.4711c1.5032 0.7549 2.8757 0.8485 4.4029 0.3004 1.4448-0.5185 2.7267-1.8024 3.2471-3.2522 0.54519-1.5186 0.45031-2.8947-0.30312-4.3949l-0.47123-0.9384 1.6166-1.6198c0.88916-0.8909 1.6759-1.6197 1.7482-1.6197 0.07216 0 0.34425 0.3043 0.60408 0.6763 2.8987 4.1486 2.4423 9.7375-1.0831 13.263-2.291 2.291-5.7521 3.4058-8.922 2.8738zm-30.069-8.1045v-7.8748l-4.8828-4.0123c-3.1419-2.5816-4.8527-4.0617-4.7983-4.1511 0.20536-0.337 2.5446-3.4351 2.6148-3.463 0.04329-0.017 2.1401 1.6625 4.6601 3.7324 2.5201 2.0699 4.6432 3.7413 4.7181 3.7144 0.07485-0.026 2.1545-1.6802 4.6214-3.6736 2.4669-1.9935 4.5307-3.6245 4.5862-3.6245 0.12825 0 2.7097 3.3703 2.7026 3.5284 0 0.065-2.172 1.8623-4.8203 3.9947l-4.8151 3.877v7.9136 7.9136h-2.2934-2.2935v-7.8748zm58.689-2.9456v-10.82h-3.8224-3.8224v-2.2346-2.2347h9.9383 9.9383v2.2347 2.2346h-3.8224-3.8224v10.82 10.82h-2.2935-2.2934v-10.82zm24.346-2.2345v-13.055h7.3508 7.3508v2.2347 2.2346h-5.0574-5.0573v2.9404 2.9402h3.646 3.646v2.2347 2.2346h-3.646-3.646v3.352 3.3521h5.0573 5.0574v2.2933 2.2934h-7.3508-7.3508v-13.055zm27.286-0.058v-13.114h1.7632 1.7632l3.9555 3.2637c2.1756 1.795 4.0236 3.2573 4.1068 3.2492 0.0831-0.01 1.9153-1.4634 4.0713-3.2343l3.9201-3.2198 1.7948-0.04 1.7948-0.04v13.124 13.124h-2.2928-2.2928l-0.0301-9.6576-0.0302-9.6574-3.4598 2.8392c-1.9029 1.5615-3.5032 2.8246-3.5563 2.8065-0.053-0.018-1.5879-1.2763-3.4108-2.7966-1.8229-1.5201-3.3584-2.7815-3.4123-2.8031-0.0538-0.022-0.0979 4.3051-0.0979 9.6149v9.6541h-2.2934-2.2934v-13.114zm-146.82 2.9721c-0.69688-0.9766-1.3006-2.2566-1.6238-3.4432-0.20897-0.7668-0.25604-1.2563-0.2546-2.6462 0-1.5051 0.03878-1.827 0.31431-2.7399 1.0859-3.5937 3.7409-6.1928 7.3085-7.1542 1.3397-0.3611 3.8353-0.3615 5.1686-8e-4 1.1426 0.309 2.5991 1.0062 3.5084 1.6792l0.6793 0.5029-1.6775 1.6806c-0.92262 0.9242-1.7207 1.6805-1.7735 1.6805-0.05322 0-0.29167-0.1337-0.53085-0.2972-1.0108-0.6907-2.8737-0.9546-4.216-0.5972-1.5134 0.4029-2.7927 1.4765-3.5251 2.9585-0.39863 0.8064-0.45148 1.0196-0.49396 1.9901-0.055015 1.2488 0.13645 2.0917 0.70473 3.1086l0.35498 0.6353-1.7009 1.7011-1.7009 1.7008-0.54158-0.7589zm61.357 0.2287c-1.1272-1.506-1.8455-3.3265-2.0352-5.158-0.46212-4.4638 1.9122-8.636 5.9586-10.471 1.4261-0.6466 2.3838-0.837 4.2104-0.837 1.8832 0 2.9122 0.2152 4.4001 0.9201 0.86373 0.4093 2.3627 1.3995 2.3627 1.5609 0 0.046-0.74072 0.8231-1.6461 1.7269l-1.6461 1.6429-0.67677-0.3693c-1.8188-0.9925-3.8996-0.992-5.5946 0-0.70482 0.4131-1.7595 1.5801-2.1237 2.3499-0.7932 1.6767-0.72656 3.3806 0.19814 5.0627l0.41081 0.7474-1.6661 1.6632c-0.91631 0.9147-1.6919 1.6616-1.7234 1.6594-0.03156 0-0.22448-0.2269-0.42884-0.4997zm18.954-33.083c-0.19408-0.0268-0.82919-0.10782-1.4114-0.18001-1.3719-0.17015-3.5732-0.72416-4.9208-1.2384-1.0998-0.41967-3.8413-1.7853-3.8413-1.9134 0-0.0396 1.5548-1.6264 3.4553-3.526l3.4552-3.4538 0.74946 0.24664c2.6637 0.87678 5.2088 0.93679 7.8392 0.18484 3.5031-1.0015 6.4668-3.4422 8.139-6.7029 1.5574-3.0369 1.851-6.8685 0.77072-10.058l-0.29546-0.87228 3.4382-3.4404c1.891-1.8922 3.4914-3.423 3.5564-3.4018 0.18413 0.0601 1.2986 2.2434 1.8212 3.5678 0.61955 1.5703 1.1128 3.5202 1.3441 5.314 1.5566 12.069-6.5773 23.127-18.523 25.183-1.3838 0.23818-4.703 0.41098-5.5764 0.2903zm-12.989-24.054c-1.0437-1.6927-2.1752-4.655-2.6675-6.9836-0.41072-1.9425-0.52273-5.6902-0.23025-7.7075 1.0006-6.9026 4.9322-12.807 10.857-16.307 6.7716-3.9991 15.49-4.1412 22.354-0.36423l1.0945 0.60224-3.4884 3.4899-3.4884 3.4898-0.85165-0.27044c-2.367-0.75165-5.1212-0.84053-7.4155-0.23928-1.4313 0.37507-3.4659 1.3528-4.5869 2.2042-4.3731 3.3214-6.3088 8.9958-4.8013 14.075 0.16694 0.56254 0.32567 1.1286 0.35272 1.258 0.03788 0.18057-0.75587 1.0389-3.4161 3.6943l-3.4655 3.4591-0.2473-0.40113z" fill="#88888c"/>
 </g>
</svg>
